<?xml version="1.0" encoding="UTF-8"?>
<svg version="1.1" xmlns="http://www.w3.org/2000/svg" width="3452" height="524">
<path d="M0 0 C0.81263809 0.03676849 1.62527618 0.07353699 2.46253967 0.11141968 C14.95918423 0.8301756 25.77490351 4.9247624 34.640625 13.97265625 C45.71837332 27.59701338 51.23922286 45.40653373 57.140625 61.66015625 C57.40445984 62.38545532 57.66829468 63.11075439 57.94012451 63.85803223 C73.55601337 106.82261262 88.32281929 150.0922 102.99394226 193.38650513 C105.34459451 200.32080928 107.70610292 207.25132989 110.07421875 214.1796875 C118.3587774 238.43396352 126.51292174 262.72967245 134.60598755 287.04837036 C153.21832061 343.04835771 153.21832061 343.04835771 172.953125 398.66015625 C173.35692383 399.76227448 173.76072266 400.8643927 174.17675781 401.99990845 C175.31323821 405.09641547 176.45432669 408.19117247 177.59765625 411.28515625 C178.11372185 412.6895118 178.11372185 412.6895118 178.64021301 414.12223816 C179.11378487 415.39784355 179.11378487 415.39784355 179.59692383 416.69921875 C179.87224442 417.44381348 180.147565 418.1884082 180.43122864 418.95556641 C181.0135973 420.66017603 181.0135973 420.66017603 182.140625 421.66015625 C184.52980733 415.91018556 186.90950032 410.15639615 189.28173828 404.39941406 C190.08404359 402.45572071 190.88860881 400.51295813 191.69580078 398.57128906 C196.36600787 387.33232144 200.80693504 376.03959217 204.88208008 364.5703125 C205.31371806 363.35796307 205.74535604 362.14561363 206.19007397 360.89652634 C210.67951323 348.22899428 214.95413099 335.49202546 219.19140625 322.73828125 C220.02013932 320.25088258 220.84909907 317.76355942 221.67826843 315.27630615 C223.40206462 310.10399299 225.12358457 304.93092709 226.84350586 299.75732422 C228.57576413 294.5466565 230.31004847 289.33666963 232.04663086 284.12744141 C240.51625053 258.72098534 248.9638448 233.30883773 257.20624924 207.82759857 C261.17908652 195.55036529 265.27129728 183.32487917 269.578125 171.16015625 C270.20987262 169.36561927 270.84120619 167.57093648 271.47216797 165.77612305 C272.43556624 163.03610074 273.39936631 160.2962269 274.36517334 157.55705261 C276.42211224 151.72054012 278.45192138 145.87526023 280.46484375 140.0234375 C288.07481908 117.94887391 296.17802556 96.08030037 304.43823242 74.2409668 C308.45618211 63.60112967 312.44455386 52.95937574 316.1640625 42.2109375 C316.61292061 40.91501427 316.61292061 40.91501427 317.07084656 39.59291077 C318.41976908 35.6839025 319.75143687 31.77000732 321.05883789 27.84692383 C327.03095746 10.15774565 327.03095746 10.15774565 334.078125 4.16015625 C357.07901697 -7.10558675 396.77917201 2.36048904 417.140625 3.66015625 C417.140625 167.01015625 417.140625 330.36015625 417.140625 498.66015625 C397.670625 498.66015625 378.200625 498.66015625 358.140625 498.66015625 C358.140625 369.96015625 358.140625 241.26015625 358.140625 108.66015625 C355.830625 108.66015625 353.520625 108.66015625 351.140625 108.66015625 C347.05749311 118.8755512 342.97912004 129.09283325 338.9061861 139.31229877 C337.0131102 144.06185102 335.11863143 148.81083167 333.22045898 153.55834961 C320.09180283 186.39972889 307.55860077 219.39495943 295.890625 252.78515625 C295.08040443 255.09673702 294.27001595 257.40825894 293.45947266 259.71972656 C291.01422182 266.69790603 288.57666517 273.67875706 286.140625 280.66015625 C285.76683716 281.73060181 285.39304932 282.80104736 285.00793457 283.90393066 C267.44349182 334.20590148 250.41928981 384.68304702 233.60063171 435.23838806 C232.55246922 438.38864485 231.50232087 441.53822874 230.45051575 444.68727112 C228.1970427 451.43912804 225.95964197 458.19379241 223.79736328 464.97558594 C223.44432632 466.07083588 223.09128937 467.16608582 222.72755432 468.29452515 C222.10080282 470.24367757 221.48336333 472.19586946 220.87876892 474.15200806 C217.16031005 485.64918685 211.18872852 495.82236754 200.421875 501.6796875 C191.76358216 505.40097432 182.74650957 503.60846856 174.140625 500.66015625 C160.43258545 495.0000625 146.83221859 485.1635569 140.11042786 471.57800293 C139.224069 469.38445532 138.42345923 467.17804556 137.65234375 464.94140625 C137.35222382 464.10756912 137.05210388 463.27373199 136.7428894 462.41462708 C135.75795658 459.66769301 134.79297696 456.91420113 133.828125 454.16015625 C133.12934791 452.19774234 132.42937098 450.23575532 131.72827148 448.27416992 C130.25891966 444.15486504 128.79827017 440.03262399 127.34472656 435.90771484 C125.21629918 429.86794139 123.06687572 423.83580295 120.9140625 417.8046875 C111.85710055 392.39856331 103.00070593 366.92357458 94.18171692 341.43406677 C91.98108255 335.07717861 89.76949368 328.72423349 87.546875 322.375 C87.25644318 321.54524658 86.96601135 320.71549316 86.66677856 319.8605957 C86.37600433 319.02987549 86.0852301 318.19915527 85.78564453 317.34326172 C78.66362942 296.99499866 71.63854945 276.61385311 64.640625 256.22265625 C64.26666721 255.13300442 64.26666721 255.13300442 63.88515472 254.02133942 C57.91414406 236.62113495 51.96089064 219.2150098 46.03796387 201.79837036 C35.09466141 169.62459965 24.0050467 137.50755205 12.140625 105.66015625 C9.500625 105.66015625 6.860625 105.66015625 4.140625 105.66015625 C4.140625 235.68015625 4.140625 365.70015625 4.140625 499.66015625 C-17.639375 499.66015625 -39.419375 499.66015625 -61.859375 499.66015625 C-61.96079027 452.71554015 -62.05758084 405.77092728 -62.11343384 358.82623291 C-62.11426218 358.13178453 -62.11509052 357.43733615 -62.11594397 356.72184388 C-62.1339001 341.63075008 -62.15052138 326.53965509 -62.16576698 311.44855832 C-62.1732512 304.04822481 -62.1810305 296.64789163 -62.18896484 289.24755859 C-62.1897494 288.51112418 -62.19053395 287.77468977 -62.19134228 287.01593916 C-62.21692472 263.13246073 -62.2620032 239.24906728 -62.31715832 215.36564037 C-62.37371982 190.82873883 -62.41067973 166.29188435 -62.42286494 141.75491872 C-62.42459395 138.29174389 -62.42654777 134.82856922 -62.42863846 131.36539459 C-62.429043 130.6837711 -62.42944753 130.0021476 -62.42986433 129.29986885 C-62.43696333 118.31368237 -62.4648149 107.32764112 -62.5003672 96.34151394 C-62.53564139 85.30514488 -62.54870848 74.26888661 -62.54038326 63.23245469 C-62.53652579 57.24915432 -62.5425951 51.26628136 -62.57460785 45.28305626 C-62.60367029 39.81153483 -62.60536972 34.34073076 -62.58476837 28.86917725 C-62.58221988 26.8839097 -62.58994668 24.89859852 -62.60867409 22.91341767 C-62.63256977 20.22529101 -62.6198963 17.53979289 -62.59766197 14.85171127 C-62.61342405 14.07127703 -62.62918614 13.29084278 -62.64542586 12.48675901 C-62.60456598 10.31808066 -62.60456598 10.31808066 -61.859375 6.66015625 C-55.84200275 1.54020527 -49.91953749 1.49281997 -42.32421875 1.08984375 C-41.07421837 1.02182053 -41.07421837 1.02182053 -39.79896545 0.9524231 C-38.02974163 0.85798073 -36.26040377 0.76565404 -34.4909668 0.67529297 C-31.85725441 0.53829696 -29.22466239 0.38666699 -26.59179688 0.234375 C-17.70172111 -0.24587218 -8.89671049 -0.41872345 0 0 Z " fill="#000000" transform="translate(61.859375,11.33984375)"/>
<path d="M0 0 C26.06480656 24.04466087 41.29244784 59.2345382 46.9375 93.75 C33.87163153 102.24281451 18.8458256 111.30838765 2.6015625 108.3203125 C-7.31024196 105.84998585 -13.85165529 100.02965058 -19.3828125 91.60546875 C-22.93390243 85.56861587 -25.95023368 79.2555277 -28.92138672 72.91796875 C-42.42819935 44.13220035 -68.24464513 25.92481183 -97.4375 14.9375 C-107.40098994 11.34628686 -117.67353026 8.77528309 -128.0625 6.75 C-129.020354 6.56236084 -129.97820801 6.37472168 -130.96508789 6.18139648 C-140.24074189 4.55295719 -149.3637793 4.39083996 -158.75 4.4375 C-159.54918854 4.43998749 -160.34837708 4.44247498 -161.17178345 4.44503784 C-172.73541917 4.50074703 -183.81736852 4.83949538 -195.0625 7.75 C-195.99497559 7.98106445 -196.92745117 8.21212891 -197.88818359 8.45019531 C-230.61277244 16.66622188 -260.72437448 29.95574321 -285.0625 53.75 C-286.44695312 55.04164062 -286.44695312 55.04164062 -287.859375 56.359375 C-299.79642583 67.75689811 -308.49994716 81.1627086 -316.0625 95.75 C-316.96935547 97.4825 -316.96935547 97.4825 -317.89453125 99.25 C-331.34094902 126.44636641 -336.89623526 156.80277615 -340.0625 186.75 C-340.2028064 187.91354004 -340.2028064 187.91354004 -340.34594727 189.10058594 C-343.18519558 215.11638059 -342.62720277 243.18390806 -337.0625 268.75 C-336.86994629 269.63848633 -336.67739258 270.52697266 -336.47900391 271.44238281 C-329.97532641 300.33674952 -316.77971732 326.65941393 -297.0625 348.75 C-296.4128125 349.52085937 -295.763125 350.29171875 -295.09375 351.0859375 C-291.1166399 355.8042363 -286.83040915 359.83906799 -282.0625 363.75 C-281.08796875 364.56210937 -280.1134375 365.37421875 -279.109375 366.2109375 C-239.61168285 398.56317025 -189.57447142 414.93835488 -138.65966797 409.92822266 C-99.01921071 405.59697503 -44.26086794 391.23914444 -16.0625 360.75 C3.21349493 336.52665528 -8.75186484 290.01166914 -11.0625 265.75 C-57.5925 265.75 -104.1225 265.75 -152.0625 265.75 C-152.0625 246.61 -152.0625 227.47 -152.0625 207.75 C-83.4225 207.75 -14.7825 207.75 55.9375 207.75 C55.958125 234.8925 55.97875 262.035 56 290 C56.009104 298.55711914 56.01820801 307.11423828 56.02758789 315.93066406 C56.03210449 326.41357422 56.03210449 326.41357422 56.03294373 331.32757568 C56.03387198 334.74538833 56.03760596 338.16318531 56.04307556 341.58099365 C56.04997698 345.95197612 56.05198335 350.32293606 56.05057228 354.69392347 C56.05086698 356.29097479 56.05282467 357.88802696 56.05671513 359.48507357 C56.12128428 387.30200201 56.12128428 387.30200201 44.5625 399.5625 C-0.5082213 442.9589746 -72.18531355 467.60168191 -134.0625 468.75 C-135.06796875 468.77046387 -136.0734375 468.79092773 -137.109375 468.81201172 C-209.97683585 470.05875419 -280.76124161 449.56754366 -336.0625 400.75 C-336.82409424 400.08315186 -336.82409424 400.08315186 -337.60107422 399.40283203 C-383.17405545 359.3343291 -406.54526126 302.98399445 -410.55273438 243.08007812 C-410.77708756 239.30509201 -410.93468241 235.52939072 -411.0625 231.75 C-411.08586426 231.07517578 -411.10922852 230.40035156 -411.13330078 229.70507812 C-413.10948965 161.61789877 -397.07755411 87.61554592 -352.0625 34.75 C-351.16229686 33.66574929 -350.26259397 32.58108313 -349.36328125 31.49609375 C-339.2838159 19.43323352 -328.53654707 8.36168424 -316.0625 -1.25 C-315.47098145 -1.7126123 -314.87946289 -2.17522461 -314.27001953 -2.65185547 C-304.9295541 -9.94249562 -295.40744588 -16.47409279 -285.0625 -22.25 C-284.00603271 -22.84893066 -284.00603271 -22.84893066 -282.92822266 -23.45996094 C-256.6738719 -38.24642975 -227.80203486 -47.64001147 -198.0625 -52.25 C-197.34513672 -52.36714355 -196.62777344 -52.48428711 -195.88867188 -52.60498047 C-129.21878459 -63.07856454 -51.31518096 -44.27021544 0 0 Z " fill="#000000" transform="translate(1445.0625,54.25)"/>
<path d="M0 0 C1.76096028 1.76096028 1.12357148 4.08753283 1.13100848 6.43357733 C1.12838146 7.22189262 1.12575445 8.01020791 1.12304783 8.82241154 C1.12420167 9.65593361 1.12535552 10.48945568 1.12654433 11.34823599 C1.12921857 14.17765709 1.12468223 17.00702275 1.12025452 19.83644104 C1.12069005 21.87083081 1.12156464 23.90522053 1.12284368 25.93960994 C1.12509208 31.55833357 1.12106267 37.17703834 1.11606562 42.79575956 C1.11176623 48.84419658 1.11320718 54.89263244 1.1139679 60.94107056 C1.11449346 71.42982284 1.11137804 81.91856964 1.10573006 92.40732002 C1.09981954 103.41174918 1.09596543 114.41617588 1.09487724 125.42060661 C1.0948085 126.10400684 1.09473976 126.78740706 1.09466894 127.49151638 C1.09433062 130.96194956 1.09402923 134.43238274 1.09374207 137.90281593 C1.09163986 162.50446686 1.08489749 187.10611456 1.07543945 211.70776367 C1.06625985 235.61271141 1.05917387 259.51765827 1.05493164 283.42260742 C1.05480011 284.15904546 1.05466859 284.8954835 1.05453308 285.65423784 C1.05321459 293.04963438 1.05193877 300.44503092 1.05069422 307.84042747 C1.04815778 322.90663411 1.04533653 337.97284069 1.04234314 353.03904724 C1.04220585 353.73181599 1.04206856 354.42458474 1.04192711 355.13834648 C1.03272145 401.42556575 1.01664786 447.71278288 1 494 C-18.47 494 -37.94 494 -58 494 C-58 371.57 -58 249.14 -58 123 C-63.94 122.505 -63.94 122.505 -70 122 C-70.94746094 123.38445312 -70.94746094 123.38445312 -71.9140625 124.796875 C-81.97433844 139.47535855 -92.19382763 154.04134254 -102.46508789 168.57275391 C-108.07546373 176.51407758 -113.64586953 184.48332024 -119.21777344 192.45166016 C-122.14376734 196.63543062 -125.07201064 200.81762594 -128 205 C-128.57878906 205.82693359 -129.15757812 206.65386719 -129.75390625 207.50585938 C-132.64478787 211.63615016 -135.53643019 215.76590423 -138.4296875 219.89453125 C-144.65239333 228.77565195 -150.86463699 237.66402187 -157.0625 246.5625 C-157.66239746 247.42270752 -158.26229492 248.28291504 -158.88037109 249.16918945 C-170.15173755 265.36524385 -181.21599283 281.70420949 -192.25 298.0625 C-192.88639404 299.00586212 -193.52278809 299.94922424 -194.1784668 300.9211731 C-202.67863708 313.52727001 -211.10452442 326.17387174 -219.390625 338.921875 C-245.76811444 379.49331193 -272.40408557 419.94625193 -301 459 C-301.52899902 459.72268066 -302.05799805 460.44536133 -302.60302734 461.18994141 C-305.59797518 465.26779788 -308.62601308 469.31656082 -311.71435547 473.32421875 C-312.83701077 474.78755069 -313.9379921 476.26745958 -315.03515625 477.75 C-324.63171643 489.81191852 -340.80766913 493.12957938 -355 497 C-356.08651855 497.29970703 -357.17303711 497.59941406 -358.29248047 497.90820312 C-363.90195674 499.45312887 -369.51564283 500.98217593 -375.13671875 502.484375 C-376.05155029 502.72897461 -376.96638184 502.97357422 -377.90893555 503.22558594 C-381.9200648 504.23050672 -385.96337223 505.10297161 -390 506 C-390 338.69 -390 171.38 -390 -1 C-371.52 -1 -353.04 -1 -334 -1 C-333.67 122.42 -333.34 245.84 -333 373 C-327.25545188 375.20743765 -327.25545188 375.20743765 -322 374 C-320.25748076 372.27018083 -320.25748076 372.27018083 -318.90625 369.9765625 C-318.35767334 369.13013184 -317.80909668 368.28370117 -317.24389648 367.41162109 C-316.66841064 366.49203613 -316.0929248 365.57245117 -315.5 364.625 C-314.25248144 362.69194671 -313.00375818 360.75967042 -311.75390625 358.828125 C-311.12629395 357.84908203 -310.49868164 356.87003906 -309.85205078 355.86132812 C-307.12364155 351.64606894 -304.28769498 347.50847873 -301.4375 343.375 C-300.36312936 341.8100001 -299.28891064 340.24489589 -298.21484375 338.6796875 C-297.68487793 337.90850586 -297.15491211 337.13732422 -296.60888672 336.34277344 C-293.90046561 332.39891775 -291.20070205 328.44914362 -288.5 324.5 C-287.4167075 322.91663873 -286.33337418 321.33330538 -285.25 319.75 C-284.71375 318.96625 -284.1775 318.1825 -283.625 317.375 C-278.75 310.25 -278.75 310.25 -277.12548828 307.87573242 C-276.04050401 306.28997365 -274.95554313 304.70419887 -273.87060547 303.1184082 C-271.18772155 299.19705358 -268.50445193 295.2759641 -265.8203125 291.35546875 C-259.39861891 281.97475949 -252.98854624 272.58621718 -246.58642578 263.19213867 C-242.56376073 257.29054046 -238.53480768 251.39330217 -234.5 245.5 C-220.12901087 224.5067394 -205.82704501 203.46638302 -191.53125 182.421875 C-184.14209361 171.54646905 -176.74148536 160.67974929 -169.27832031 149.85498047 C-167.53688155 147.32796524 -165.79839169 144.79892762 -164.06005859 142.26977539 C-163.54523926 141.52074951 -163.03041992 140.77172363 -162.5 140 C-162.096035 139.41216736 -161.69207001 138.82433472 -161.27586365 138.21868896 C-159.03935889 134.96476079 -156.8018116 131.71157255 -154.55981445 128.46142578 C-126.07574823 87.29993008 -126.07574823 87.29993008 -99.3828125 44.97265625 C-87.33606851 24.86621409 -87.33606851 24.86621409 -80 17 C-79.360625 16.28199219 -78.72125 15.56398438 -78.0625 14.82421875 C-57.40044797 -7.29584099 -27.31489694 -7.18205843 0 0 Z " fill="#000000" transform="translate(2473,16)"/>
<path d="M0 0 C2.51990352 2.22624547 4.97623143 4.50479286 7.41796875 6.81640625 C8.30226563 7.63625 9.1865625 8.45609375 10.09765625 9.30078125 C22.06973983 20.76413607 30.82119181 34.16310052 38.41796875 48.81640625 C39.02253906 49.97140625 39.62710938 51.12640625 40.25 52.31640625 C44.06841592 60.03943259 46.98222809 67.96583986 49.73046875 76.12890625 C50.23719116 77.63227539 50.23719116 77.63227539 50.75415039 79.16601562 C52.7666966 85.32335771 54.31187023 91.43331429 55.41796875 97.81640625 C39.6441065 106.15893673 23.09589772 114.1542914 4.98046875 109.31640625 C-11.28400143 103.8633592 -19.18316281 89.85072628 -26.51953125 75.37890625 C-35.99190908 56.70453388 -48.56409131 41.91946468 -66.58203125 30.81640625 C-67.67644531 30.13835937 -68.77085937 29.4603125 -69.8984375 28.76171875 C-85.80853426 19.41267297 -104.35672396 14.11116398 -122.58203125 11.81640625 C-123.60961548 11.67936279 -123.60961548 11.67936279 -124.65795898 11.53955078 C-167.72924307 6.17059392 -213.17944183 18.87179697 -247.52539062 45.18652344 C-281.58482743 72.17854625 -294.96433974 112.75982668 -301.83203125 154.44140625 C-301.98325439 155.35664063 -302.13447754 156.271875 -302.2902832 157.21484375 C-305.06541963 175.36683719 -305.9632308 193.53800774 -305.89453125 211.87890625 C-305.89179703 213.40954208 -305.89179703 213.40954208 -305.88900757 214.97109985 C-305.83880328 231.75257954 -305.0983125 248.19913034 -302.58203125 264.81640625 C-302.4104248 265.97543457 -302.23881836 267.13446289 -302.06201172 268.32861328 C-296.77683705 303.01050571 -287.3008472 339.21755583 -264.58203125 366.81640625 C-263.97101562 367.59113281 -263.36 368.36585938 -262.73046875 369.1640625 C-239.70668491 396.93956343 -198.63362308 412.03652591 -163.61914062 415.58935547 C-122.58100679 418.65731885 -81.36155631 410.85897872 -49.07421875 384.0234375 C-30.07137117 367.19489694 -19.65415553 347.48039612 -8.89672852 324.79663086 C-5.40088151 317.4548022 -1.79636367 310.17520601 1.91796875 302.94140625 C2.42239502 301.94222168 2.92682129 300.94303711 3.4465332 299.91357422 C3.92179443 298.99721191 4.39705566 298.08084961 4.88671875 297.13671875 C5.30373047 296.32477051 5.72074219 295.51282227 6.15039062 294.67626953 C7.41796875 292.81640625 7.41796875 292.81640625 10.41796875 291.81640625 C12.79081726 292.18968201 12.79081726 292.18968201 15.6237793 292.89624023 C16.68465256 293.15658554 17.74552582 293.41693085 18.83854675 293.68516541 C19.9823732 293.97468582 21.12619965 294.26420624 22.3046875 294.5625 C24.06290581 294.9974453 24.06290581 294.9974453 25.85664368 295.44117737 C29.60820129 296.37110456 33.35681064 297.31236609 37.10546875 298.25390625 C39.64499655 298.8855129 42.18470797 299.51638179 44.72460938 300.14648438 C50.95788676 301.69456345 57.18877956 303.25196314 63.41796875 304.81640625 C63.4351138 306.38692396 63.44722136 307.95749706 63.45727539 309.52807617 C63.46457169 310.4026799 63.47186798 311.27728363 63.47938538 312.1783905 C63.38438117 316.25908656 62.6848596 320.14123089 61.85546875 324.12890625 C61.67983398 324.98137939 61.50419922 325.83385254 61.32324219 326.7121582 C54.62689235 357.53506258 39.90594479 385.37166667 18.52734375 408.51953125 C16.63897063 410.57575976 14.83816292 412.67927033 13.04296875 414.81640625 C0.41021935 429.20450352 -15.88045417 440.63270789 -32.58203125 449.81640625 C-33.50870605 450.3261499 -33.50870605 450.3261499 -34.45410156 450.84619141 C-89.22755917 480.50214683 -161.32805067 483.74186058 -220.58203125 466.81640625 C-250.40841782 457.93728348 -276.6426943 442.69639625 -299.10253906 421.22851562 C-300.08367965 420.29206065 -301.06998372 419.36098394 -302.06152344 418.43554688 C-350.14501766 373.48999987 -370.17574901 303.26423011 -377.58203125 239.81640625 C-377.69772461 238.83414062 -377.81341797 237.851875 -377.93261719 236.83984375 C-385.22501719 171.9223363 -373.15012957 103.99616609 -333.58203125 50.81640625 C-333.16211914 50.24245117 -332.74220703 49.66849609 -332.30957031 49.07714844 C-326.98293563 41.81279965 -321.25166583 35.07248421 -315.08984375 28.51171875 C-313.07516795 26.34641299 -311.16061284 24.15010474 -309.26953125 21.87890625 C-273.74857994 -18.76445175 -220.89250208 -40.03284941 -167.99731445 -43.96972656 C-112.02798767 -47.47456109 -44.01604633 -37.22385764 0 0 Z " fill="#000000" transform="translate(2945.58203125,48.18359375)"/>
<path d="M0 0 C1.01727076 0.00037972 2.03454153 0.00075944 3.08263868 0.00115067 C4.83603153 -0.00183591 4.83603153 -0.00183591 6.62484646 -0.00488281 C8.57567871 -0.00051355 8.57567871 -0.00051355 10.56592172 0.00394398 C11.9485931 0.0035084 13.3312644 0.00263374 14.71393526 0.00135481 C18.53121358 -0.00089274 22.34846411 0.00313467 26.16573888 0.00813287 C30.27550749 0.01243348 34.38527442 0.01099123 38.49504465 0.0102306 C45.62141221 0.00970512 52.74777065 0.01285446 59.87413591 0.01846844 C70.17778554 0.02658015 80.48143075 0.02919832 90.78508323 0.03045643 C107.50027551 0.03264747 124.21546292 0.03930896 140.93065256 0.04875904 C157.17218877 0.05793182 173.41372366 0.06501331 189.65526193 0.06926686 C190.65564273 0.06952958 191.65602352 0.0697923 192.68671889 0.07006299 C197.70511212 0.07136798 202.72350535 0.0726317 207.7418986 0.07387489 C249.40385984 0.08424912 291.06581514 0.1021432 332.7277717 0.1241985 C332.7277717 18.2741985 332.7277717 36.4241985 332.7277717 55.1241985 C245.2777717 55.4541985 157.8277717 55.7841985 67.7277717 56.1241985 C73.0077717 61.7341985 78.2877717 67.3441985 83.7277717 73.1241985 C87.25440209 76.93295931 90.77933633 80.74236139 94.29222482 84.56365162 C96.76701737 87.25393631 99.24777803 89.93870932 101.7277717 92.6241985 C102.72648991 93.70621101 103.72518785 94.78824225 104.72386545 95.87029225 C106.73631876 98.05050461 108.74939927 100.23013551 110.76292795 102.40935475 C115.594078 107.63895016 120.41954178 112.87351463 125.2277717 118.1241985 C134.39594633 128.13361065 143.60499168 138.10462334 152.88353342 148.01189381 C155.2936524 150.58670339 157.6956566 153.16859881 160.08983225 155.7582317 C167.98609178 164.26294573 176.08490507 172.54450922 184.32542795 180.71404225 C184.83062589 181.21536041 185.33582384 181.71667858 185.85633081 182.23318821 C190.56330845 186.90349789 195.27465229 191.56935455 199.99803537 196.22307545 C202.61665335 198.80372396 205.22762279 201.39191207 207.83409303 203.98482662 C209.27693469 205.41594307 210.72793582 206.83881866 212.17920297 208.26139027 C220.76824854 216.817055 229.53739757 226.19287339 230.2902717 238.8116985 C229.93224947 250.76069033 222.65635446 258.91790705 214.7277717 267.1241985 C213.51079844 268.51250546 212.30181399 269.90787595 211.1027717 271.3116985 C208.89591358 273.84907684 206.62409931 276.26514709 204.2277717 278.6241985 C201.23542795 281.57020064 198.47452997 284.65402857 195.7355842 287.835136 C193.78421985 290.05984321 191.78608714 292.23573115 189.773426 294.40496022 C184.96539693 299.58893931 180.40927069 304.89869975 175.97386545 310.40935475 C173.6394658 313.23093345 171.20786572 315.93010561 168.7277717 318.6241985 C164.69144115 323.01448419 160.88746641 327.5359547 157.1418342 332.17497975 C154.38914842 335.53788875 151.56580654 338.83336161 148.7277717 342.1241985 C144.48222562 347.05433888 140.30714065 352.03104799 136.2043342 357.08122975 C133.06184 360.94243318 129.89478183 364.7830976 126.7277717 368.6241985 C122.88698921 373.28481494 119.04897546 377.94750135 115.2277717 382.6241985 C98.71174169 402.82410137 98.71174169 402.82410137 90.9152717 411.9991985 C83.64460775 420.55679898 76.62320322 429.25864369 69.7277717 438.1241985 C162.4577717 438.1241985 255.1877717 438.1241985 350.7277717 438.1241985 C350.7277717 457.2641985 350.7277717 476.4041985 350.7277717 496.1241985 C234.5677717 496.1241985 118.4077717 496.1241985 -1.2722283 496.1241985 C-9.26320756 472.15126071 -8.36089877 446.14932686 2.6574592 423.1866985 C13.38936477 401.88927349 30.33474771 385.24049713 47.18553537 368.70281178 C51.01083319 364.93049866 54.62108678 361.0414074 58.12913889 356.97234303 C60.23545786 354.5372736 62.41815327 352.17652956 64.6027717 349.8116985 C68.74703135 345.2724489 72.65355568 340.58961553 76.51292795 335.80779225 C78.68409997 333.17711293 80.93018527 330.64477425 83.2277717 328.1241985 C87.93392197 322.95233543 92.33463773 317.56222717 96.7277717 312.1241985 C98.22649612 310.28982225 99.72649468 308.45648625 101.2277717 306.6241985 C101.97542795 305.71025318 102.7230842 304.79630787 103.4933967 303.85466725 C104.94074221 302.08597054 106.38862471 300.31771307 107.8371467 298.54997975 C112.31358215 293.08513428 116.7748357 287.60819205 121.2277717 282.1241985 C125.68301793 276.63735978 130.14568591 271.15684317 134.6262092 265.69060475 C136.05093335 263.95074645 137.47271879 262.20847833 138.8918342 260.46404225 C144.74761559 253.2736393 150.7200054 246.18753495 156.7277717 239.1241985 C152.41358288 233.97113963 147.89849731 229.0298491 143.33104318 224.10271412 C138.74627741 219.15448291 134.22912737 214.14839765 129.7277717 209.1241985 C128.18624529 207.4157386 126.64457816 205.70740566 125.1027717 203.9991985 C122.49456008 201.10318422 119.9071168 198.19277714 117.3527717 195.2491985 C113.89857866 191.280893 110.33646612 187.4140729 106.77293772 183.54436451 C104.2406647 180.78981758 101.73756967 178.01694774 99.2902717 175.1866985 C95.25076639 170.53018045 91.04702155 166.02727719 86.85667795 161.507011 C84.81331814 159.30198294 82.77923868 157.08908466 80.75511545 154.866386 C76.41078314 150.09648645 72.04781283 145.37959183 67.43577951 140.86467701 C65.7545045 139.15143951 64.20078115 137.3779861 62.64574045 135.54997975 C58.24911659 130.49762754 53.53499158 125.7850618 48.7902717 121.0616985 C47.93497873 120.20253834 47.07968576 119.34337818 46.19847482 118.45818287 C41.73504973 114.00156697 37.20245115 109.7026722 32.41844553 105.59221607 C30.36846996 103.81221563 28.44134065 101.93674851 26.5402717 99.9991985 C25.87511545 99.32372975 25.2099592 98.648261 24.5246467 97.9523235 C23.93167795 97.34904225 23.3387092 96.745761 22.7277717 96.1241985 C21.9233967 95.3404485 21.1190217 94.5566985 20.2902717 93.7491985 C19.4446467 92.8829485 18.5990217 92.0166985 17.7277717 91.1241985 C17.06003732 90.45259693 16.39230295 89.78099537 15.7043342 89.08904225 C-0.41594537 72.1710014 -6.83159726 50.58570174 -6.5378533 27.428886 C-5.25225808 0.28708495 -5.25225808 0.28708495 0 0 Z " fill="#000000" transform="translate(3101.2722283005714,14.875801503658295)"/>
<path d="M0 0 C1.27681641 -0.00257812 2.55363281 -0.00515625 3.86914062 -0.0078125 C5.18720703 -0.00007812 6.50527344 0.00765625 7.86328125 0.015625 C9.16201172 0.00789062 10.46074219 0.00015625 11.79882812 -0.0078125 C25.40126413 0.01951535 38.29730685 1.03504926 49.23828125 9.9453125 C58.51975029 19.59969771 62.80913024 34.07173665 67.19793701 46.43835449 C68.80779795 50.97112691 70.44856144 55.49273494 72.0859375 60.015625 C72.42330933 60.94945007 72.76068115 61.88327515 73.10827637 62.84539795 C76.64499189 72.6112732 80.3353817 82.31660305 84.05078125 92.015625 C84.72173931 93.76893877 85.39263735 95.52227552 86.06347656 97.27563477 C87.07993924 99.9323132 88.09641271 102.58898722 89.11331177 105.24549866 C92.54373664 114.21346292 95.93218032 123.19713039 99.318573 132.18179321 C114.85442067 173.39424503 130.63312064 214.51419212 146.46055603 255.61538696 C149.34340388 263.10200162 152.22334173 270.58973034 155.1015625 278.078125 C164.23972699 301.85181377 173.3957932 325.61850258 182.57073975 349.37802124 C189.52497778 367.38737491 196.4640051 385.40250892 203.38916016 403.42306519 C208.05280172 415.55841742 212.72342119 427.69102711 217.40948486 439.81773758 C218.17200334 441.79100466 218.93440291 443.76431765 219.69677734 445.73764038 C222.13623555 452.05157092 224.5769404 458.36501482 227.01953125 464.67773438 C227.90498869 466.96873424 228.79040732 469.25974911 229.67578125 471.55078125 C230.27132812 473.08799583 230.27132812 473.08799583 230.87890625 474.65626526 C231.98607908 477.52300339 233.0842343 480.39290289 234.17578125 483.265625 C234.75392578 484.78336014 234.75392578 484.78336014 235.34375 486.33175659 C235.71113281 487.31467682 236.07851562 488.29759705 236.45703125 489.31030273 C236.78767578 490.19072739 237.11832031 491.07115204 237.45898438 491.97825623 C238.17578125 494.265625 238.17578125 494.265625 238.17578125 497.265625 C235.46801631 497.91392062 232.7596168 498.55933102 230.05078125 499.203125 C229.29023437 499.38552734 228.5296875 499.56792969 227.74609375 499.75585938 C211.45140631 503.61882407 192.88900957 505.01037835 177.86328125 496.453125 C158.49747001 483.80038251 151.12812935 462.4468474 144.359375 441.30859375 C143.73535535 439.39383333 143.11008509 437.47948009 142.48365784 435.56550598 C140.84301193 430.54352964 139.21649022 425.51710351 137.59393311 420.48925781 C134.71965229 411.59038281 131.82107705 402.69937433 128.921875 393.80859375 C128.60366035 392.83161781 128.28544571 391.85464188 127.9575882 390.84806061 C121.26234955 370.31151997 114.18514865 349.91641109 106.98395157 329.55257034 C105.99691275 326.75946625 105.01331217 323.96516067 104.03010559 321.1707058 C101.38561011 313.65522631 98.72271776 306.14638677 96.05078125 298.640625 C95.61889496 297.4263382 95.18700867 296.21205139 94.74203491 294.96096802 C87.26518563 273.94835236 79.59786448 253.00881145 71.85668945 232.09204102 C66.06965593 216.44926934 60.36920328 200.77774371 54.73828125 185.078125 C48.97475637 169.0130673 43.1883014 152.95791549 37.23193359 136.96313477 C34.57479419 129.82136069 31.95238883 122.67241742 29.44168091 115.4776001 C28.22306712 111.99110771 26.98682068 108.51097908 25.74938965 105.03112793 C25.16924736 103.38420796 24.59753369 101.73428878 24.03527832 100.08117676 C18.90518948 84.79329356 18.90518948 84.79329356 7.17578125 74.265625 C7.05005234 75.14331543 6.92432343 76.02100586 6.79478455 76.92529297 C6.21515055 80.05317616 5.39622253 82.74290355 4.27172852 85.7109375 C3.87418869 86.76866867 3.47664886 87.82639984 3.06706238 88.91618347 C2.41124931 90.63603203 2.41124931 90.63603203 1.7421875 92.390625 C1.03519045 94.26588304 0.32819655 96.14114227 -0.37868404 98.01644421 C-1.14002652 100.0331864 -1.90402108 102.04890585 -2.66876221 104.06436157 C-4.28807005 108.33263591 -5.89959555 112.60381985 -7.50927734 116.87573242 C-7.7833844 117.60317878 -8.05749146 118.33062513 -8.33990479 119.08011532 C-8.90083225 120.56886668 -9.46172215 122.05763219 -10.02257538 123.54641151 C-10.88317413 125.83028643 -11.74443265 128.11391175 -12.60577393 130.39750671 C-18.50268205 146.0372429 -24.32242784 161.70538564 -30.13312149 177.37731552 C-32.31814087 183.26976437 -34.50499207 189.16153391 -36.69160271 195.05339241 C-37.23217385 196.50999011 -37.77271783 197.96659789 -38.31323433 199.42321587 C-43.88528111 214.43876776 -49.47619291 229.44723931 -55.07421875 244.453125 C-55.52106018 245.65095612 -55.96790161 246.84878723 -56.42828369 248.08291626 C-58.66480322 254.07800441 -60.90165544 260.07296835 -63.13867188 266.06787109 C-67.2430637 277.06760376 -71.34439224 288.06847874 -75.4460144 299.06924438 C-77.73473754 305.20766056 -80.02361887 311.34601774 -82.3125 317.484375 C-82.7656105 318.699543 -83.21872101 319.914711 -83.68556213 321.16670227 C-85.99779349 327.36768286 -88.31010559 333.56863332 -90.62255859 339.76953125 C-90.85409008 340.39039832 -91.08562157 341.01126539 -91.32416916 341.65094662 C-92.49317139 344.78568454 -93.66223719 347.92039873 -94.8314209 351.05506897 C-97.14058535 357.24635729 -99.44862524 363.43806154 -101.75439453 369.63061523 C-105.7637498 380.39588879 -109.77847662 391.15887642 -113.83326721 401.90713501 C-115.55331649 406.46813631 -117.26778468 411.0312265 -118.98184204 415.59448242 C-119.77195422 417.69320862 -120.56474574 419.79092881 -121.36068726 421.88745117 C-126.07446842 434.30537639 -130.35495919 446.76842473 -134.11691284 459.51087952 C-138.76368942 475.13672952 -146.14001414 489.82945718 -160.82421875 498.265625 C-175.03629132 505.68465146 -193.54806671 503.40661554 -208.48828125 499.3359375 C-211.12581814 498.48970201 -213.42135233 497.61952436 -215.82421875 496.265625 C-211.31975215 482.30996846 -206.42989895 468.50447092 -201.42456055 454.72265625 C-200.84157693 453.11720826 -200.25865216 451.51173891 -199.67578125 449.90625 C-199.37491104 449.07758423 -199.07404083 448.24891846 -198.76405334 447.3951416 C-196.24911386 440.4587362 -193.7638686 433.51192328 -191.28515625 426.5625 C-176.92756581 386.31982269 -161.97176789 346.36917193 -146.32080078 306.61230469 C-143.65767587 299.8457273 -141.00451799 293.075257 -138.3515625 286.3046875 C-129.63744748 264.07299797 -120.89226492 241.85516251 -112.00244141 219.69311523 C-90.34604412 165.69544854 -69.04335234 111.55531169 -48.15600586 57.25561523 C-40.58531503 37.57984639 -40.58531503 37.57984639 -37.375 29.46875 C-36.72785034 27.83147949 -36.72785034 27.83147949 -36.06762695 26.16113281 C-31.78404202 16.1860067 -25.98335017 7.83926302 -16.01171875 3.08984375 C-10.62454674 1.0600343 -5.76072669 0.01136158 0 0 Z " fill="#000000" transform="translate(1773.82421875,11.734375)"/>
<path d="M0 0 C124.41 0 248.82 0 377 0 C377 17.49 377 34.98 377 53 C252.59 53 128.18 53 0 53 C0 35.51 0 18.02 0 0 Z " fill="#000000" transform="translate(581,458)"/>
<path d="M0 0 C119.13 0 238.26 0 361 0 C361 17.16 361 34.32 361 52 C241.87 52 122.74 52 0 52 C0 34.84 0 17.68 0 0 Z " fill="#000000" transform="translate(588,16)"/>
<path d="M0 0 C97.68 0 195.36 0 296 0 C297.08965768 17.97935178 298 35.98765855 298 54 C200.32 54 102.64 54 2 54 C0 18 0 18 0 0 Z " fill="#000000" transform="translate(617,235)"/>
</svg>
